<svg xmlns="http://www.w3.org/2000/svg" xmlns:xlink="http://www.w3.org/1999/xlink" viewBox="0,0,256,256" width="48px" height="48px" fill-rule="nonzero"><g fill="none" fill-rule="nonzero" stroke="none" stroke-width="1" stroke-linecap="butt" stroke-linejoin="miter" stroke-miterlimit="10" stroke-dasharray="" stroke-dashoffset="0" font-family="none" font-weight="none" font-size="none" text-anchor="none" style="mix-blend-mode: normal"><g transform="scale(5.33333,5.33333)"><path d="M40,42h-32c-1.1,0 -2,-0.9 -2,-2v-32c0,-1.1 0.9,-2 2,-2h32c1.1,0 2,0.9 2,2v32c0,1.1 -0.9,2 -2,2z" fill-opacity="0.63922" fill="#f5bb9b"></path><path d="M21,6h6v7h-6z" fill="#ffb74d"></path><path d="M29,37h9v1h-9zM35,32h2v4h-2z" fill="#b86d00"></path><path d="M36,30l-2,3h4zM30,32h2v4h-2z" fill="#b86d00"></path><path d="M31,30l-2,3h4z" fill="#b86d00"></path></g></g></svg>